<?xml version="1.0" standalone="no"?>
<!DOCTYPE svg PUBLIC "-//W3C//DTD SVG 20010904//EN"
 "http://www.w3.org/TR/2001/REC-SVG-20010904/DTD/svg10.dtd">
<svg version="1.0" xmlns="http://www.w3.org/2000/svg"
 width="700.000000pt" height="700.000000pt" viewBox="0 0 700.000000 700.000000"
 preserveAspectRatio="xMidYMid meet">
<metadata>
Created by potrace 1.14, written by Peter Selinger 2001-2017
</metadata>
<g transform="translate(0.000000,700.000000) scale(0.100000,-0.100000)"
fill="#000000" stroke="none">
<path d="M1057 6610 c-48 -9 -87 -46 -127 -121 -43 -80 -60 -169 -66 -334 -10
-306 76 -507 276 -644 90 -62 318 -148 590 -225 402 -112 434 -122 495 -146
11 -4 73 -27 138 -50 220 -79 376 -195 566 -420 35 -41 88 -99 117 -127 48
-47 59 -53 97 -53 80 0 132 50 131 124 -2 52 -4 55 -114 177 -299 331 -449
444 -717 539 -54 19 -93 38 -93 46 0 7 61 76 135 153 74 77 136 148 136 158 9
112 -61 178 -159 151 -64 -17 -352 -332 -352 -384 0 -17 -1 -17 -35 -4 -14 5
-67 21 -118 34 -139 37 -329 92 -357 104 -18 8 -20 11 -7 11 31 1 113 49 153
88 62 62 143 122 204 153 31 16 65 40 74 55 38 58 20 141 -38 176 -51 31 -92
24 -188 -31 -96 -55 -108 -63 -187 -136 -31 -28 -77 -58 -103 -68 -70 -26
-102 -90 -79 -157 6 -18 10 -33 8 -35 -9 -9 -171 80 -204 112 -88 86 -129 222
-120 398 9 154 14 177 59 248 34 54 38 99 15 145 -27 51 -72 73 -130 63z"/>
<path d="M5462 6589 c-50 -25 -72 -62 -72 -118 0 -33 8 -49 43 -89 113 -131
149 -175 233 -286 95 -127 152 -208 170 -241 6 -11 21 -37 33 -59 28 -48 65
-148 76 -201 5 -22 9 -44 11 -50 43 -174 62 -802 30 -995 -3 -14 -7 -45 -10
-70 -44 -343 -223 -718 -448 -942 -61 -60 -107 -96 -152 -118 l-65 -32 -30 25
c-43 36 -83 42 -128 20 -112 -54 -99 -188 24 -260 42 -25 58 -28 128 -28 66 1
92 6 145 30 212 93 429 341 593 675 83 170 132 322 171 527 5 24 15 90 21 143
19 146 23 402 12 640 -8 150 -11 189 -27 325 -23 190 -71 332 -164 489 -52 88
-250 358 -331 451 -28 33 -64 78 -78 100 -49 74 -117 97 -185 64z"/>
<path d="M5050 5983 c-85 -44 -87 -150 -6 -258 92 -122 182 -178 401 -255 66
-23 143 -55 171 -71 72 -41 123 -40 169 4 67 61 54 152 -27 203 -35 22 -196
97 -205 95 -2 0 -8 1 -15 4 -7 2 -35 11 -61 19 -123 40 -224 116 -252 189 -29
75 -105 106 -175 70z"/>
<path d="M1651 5138 c-98 -15 -156 -67 -155 -138 3 -86 79 -142 159 -118 57
18 282 11 408 -13 63 -11 100 -3 137 32 29 28 34 42 33 102 -1 56 -50 102
-118 113 -22 3 -42 7 -45 9 -22 14 -350 23 -419 13z"/>
<path d="M5303 4975 c-63 -27 -85 -114 -47 -187 39 -75 159 -144 353 -204 64
-19 133 -42 154 -50 101 -38 187 14 187 114 0 78 -41 106 -250 172 -150 47
-222 81 -240 114 -27 51 -95 68 -157 41z"/>
<path d="M3690 4552 c-173 -7 -334 -40 -535 -107 -159 -53 -204 -72 -370 -155
-277 -140 -469 -270 -608 -414 -79 -81 -173 -212 -207 -288 -40 -90 16 -181
111 -181 56 0 83 24 148 129 135 219 395 410 811 597 240 108 499 169 710 168
421 -3 873 -249 999 -544 39 -92 50 -257 25 -407 -18 -115 -83 -318 -131 -414
-109 -215 -379 -514 -688 -759 -33 -27 -67 -53 -75 -60 -34 -27 -219 -156
-275 -192 -305 -195 -675 -378 -1030 -510 -323 -121 -913 -290 -1135 -325 -41
-6 -86 -14 -100 -16 -14 -3 -82 -7 -152 -11 l-128 -6 6 60 c5 46 2 68 -11 96
-10 22 -14 45 -10 59 20 65 101 237 313 663 318 638 399 805 504 1045 147 334
141 319 129 360 -20 68 -91 108 -156 87 -59 -19 -68 -34 -213 -367 -97 -220
-198 -431 -534 -1105 -117 -236 -232 -475 -253 -530 l-40 -100 -140 0 c-133 0
-143 -1 -197 -28 -122 -60 -147 -127 -104 -279 54 -187 108 -276 207 -343 63
-42 75 -47 129 -47 81 -1 173 44 257 126 l62 61 143 0 c79 0 168 4 198 8 190
26 353 61 575 124 50 14 97 26 105 28 27 6 223 65 330 100 651 210 1203 488
1665 839 66 50 134 103 150 117 237 205 363 329 470 464 22 27 45 55 51 61 28
30 147 217 177 279 59 119 106 271 153 490 3 17 7 96 9 176 5 211 -27 334
-128 487 -44 64 -210 242 -228 242 -4 0 -14 6 -22 14 -30 30 -163 110 -260
157 -227 108 -478 162 -707 151z"/>
<path d="M6565 4553 c-11 -2 -30 -6 -42 -9 -48 -10 -213 -195 -261 -291 -25
-52 -29 -68 -22 -99 12 -51 57 -94 106 -100 57 -7 102 21 142 90 19 31 69 95
112 141 84 88 96 113 86 170 -10 53 -76 106 -121 98z"/>
<path d="M2172 3280 c-95 -43 -148 -243 -88 -335 36 -56 104 -76 160 -50 51
24 71 60 69 123 -1 37 4 66 19 93 54 104 -53 217 -160 169z"/>
<path d="M3379 2793 c-121 -41 -231 -181 -253 -323 -21 -132 8 -215 86 -250
82 -37 179 1 279 107 74 80 109 147 121 238 14 99 11 132 -11 168 -41 66 -131
90 -222 60z"/>
</g>
</svg>
