<?xml version="1.0" standalone="no"?>
<!DOCTYPE svg PUBLIC "-//W3C//DTD SVG 20010904//EN"
 "http://www.w3.org/TR/2001/REC-SVG-20010904/DTD/svg10.dtd">
<svg version="1.0" xmlns="http://www.w3.org/2000/svg"
 width="192.000000pt" height="192.000000pt" viewBox="0 0 192.000000 192.000000"
 preserveAspectRatio="xMidYMid meet">
<metadata>
Created by potrace 1.14, written by Peter Selinger 2001-2017
</metadata>
<g transform="translate(0.000000,192.000000) scale(0.100000,-0.100000)"
fill="#000000" stroke="none">
<path d="M332 1815 c-27 -34 -35 -120 -17 -183 27 -88 56 -105 330 -187 108
-32 168 -68 224 -135 42 -50 67 -60 88 -39 17 17 6 38 -46 92 -55 59 -118 104
-168 121 l-37 13 42 45 c43 46 47 70 14 83 -12 4 -33 -10 -70 -50 l-54 -55
-65 18 -65 18 62 48 c65 51 74 79 30 84 -15 2 -40 -7 -60 -22 -19 -14 -45 -31
-57 -37 -13 -7 -23 -20 -23 -31 0 -39 -61 -2 -81 49 -13 35 -11 104 5 133 10
17 11 30 5 42 -13 25 -34 22 -57 -7z"/>
<path d="M1562 1828 c-20 -20 -14 -35 44 -110 64 -83 89 -128 98 -179 10 -59
8 -271 -4 -324 -16 -73 -67 -170 -113 -216 -33 -33 -46 -39 -75 -37 -46 4 -65
-22 -38 -51 66 -72 215 55 277 236 22 61 24 85 24 243 0 160 -2 179 -22 224
-35 75 -149 226 -171 226 -5 0 -13 -5 -20 -12z"/>
<path d="M1442 1653 c-22 -41 28 -91 131 -132 65 -26 87 -23 87 12 0 20 -10
29 -49 46 -27 11 -54 21 -60 21 -6 0 -23 16 -38 35 -31 38 -57 45 -71 18z"/>
<path d="M510 1431 c-27 -7 -38 -35 -22 -54 7 -8 41 -12 93 -12 67 0 84 3 93
17 8 13 7 21 -4 32 -17 16 -123 28 -160 17z"/>
<path d="M1510 1375 c-21 -25 12 -60 76 -85 74 -27 109 -24 109 10 0 21 -8 28
-55 43 -30 10 -62 25 -71 33 -20 18 -43 18 -59 -1z"/>
<path d="M975 1259 c-22 -5 -87 -32 -143 -60 -148 -73 -240 -168 -218 -224 9
-25 44 -17 60 13 60 116 331 239 471 213 106 -20 189 -72 220 -138 36 -76 5
-203 -75 -309 -80 -106 -304 -259 -474 -324 -143 -55 -309 -101 -382 -107
l-71 -6 -5 32 c-4 27 19 81 123 294 71 144 129 274 129 288 0 31 -25 45 -47
27 -8 -7 -26 -37 -39 -68 -13 -30 -72 -155 -131 -277 l-108 -222 -40 0 c-78
-1 -101 -40 -70 -115 32 -77 82 -96 139 -53 24 18 49 25 106 30 135 11 351 77
525 162 242 118 428 289 479 440 24 70 30 152 16 204 -16 61 -87 134 -169 173
-58 28 -78 32 -161 35 -52 1 -113 -2 -135 -8z"/>
<path d="M1812 1228 c-40 -50 -39 -82 1 -86 15 -2 27 1 27 7 0 6 14 26 31 45
35 41 35 70 -1 73 -19 2 -33 -8 -58 -39z"/>
<path d="M652 918 c-32 -41 -19 -102 21 -96 26 4 45 72 26 94 -14 17 -33 18
-47 2z"/>
<path d="M958 763 c-34 -36 -46 -94 -23 -116 21 -21 39 -21 71 -1 46 31 69
105 42 132 -21 21 -63 14 -90 -15z"/>
</g>
</svg>
