<?xml version="1.0" encoding="UTF-8" standalone="no"?>
<!DOCTYPE svg PUBLIC "-//W3C//DTD SVG 1.1//EN" "http://www.w3.org/Graphics/SVG/1.1/DTD/svg11.dtd">
<!-- Created with Vectornator (http://vectornator.io/) -->
<svg height="100%" stroke-miterlimit="10" style="fill-rule:nonzero;clip-rule:evenodd;stroke-linecap:round;stroke-linejoin:round;" version="1.1" viewBox="0 0 500 500" width="100%" xml:space="preserve" xmlns="http://www.w3.org/2000/svg" xmlns:vectornator="http://vectornator.io" xmlns:xlink="http://www.w3.org/1999/xlink">
<defs/>
<clipPath id="ArtboardFrame">
<rect height="500" width="500" x="0" y="0"/>
</clipPath>
<g clip-path="url(#ArtboardFrame)" id="레이어-1" vectornator:layerName="레이어 1">
<path d="M401.248-221.254C402.064-221.171 402.403-223.045 401.841-223.642C400.482-225.086 398.485-226.083 396.514-226.284C395.681-226.368 394.344-224.957 394.917-224.348C396.527-222.637 398.911-221.492 401.248-221.254Z" fill="none" fill-rule="evenodd" opacity="1" stroke="#000000" stroke-linecap="round" stroke-linejoin="round" stroke-width="10"/>
<g opacity="1">
<path d="M133.685 263.665C127.599 275.836 122.927 288.738 116.988 301.013C103.177 329.555 88.9776 357.913 74.8055 386.257C69.9887 395.89 65.5593 406.105 62.9418 416.575C62.3237 419.047 61.1689 423.358 62.5024 425.802C66.4978 433.127 75.7347 433.497 83.154 433.272C104.416 432.628 124.737 426.673 145.109 420.969C202.008 405.037 256.161 380.549 300.656 340.999C315.292 327.989 328.075 314.378 338.005 297.498C343.595 287.994 346.595 276.968 348.99 266.301C351.142 256.712 352.016 245.206 349.868 235.543C343.824 208.342 310.953 190.499 285.716 185.452C249.562 178.221 211.484 194.82 181.579 213.573C167.58 222.352 156.001 233.093 148.624 247.846" fill="none" fill-rule="evenodd" opacity="1" stroke="#252222" stroke-linecap="round" stroke-linejoin="round" stroke-width="17.9141"/>
<path d="M48.4416 444.257C40.0058 441.445 39.2093 433.401 47.1234 428.878C50.7404 426.811 54.9389 426.242 58.9872 426.242C61.5312 426.242 64.3369 426.525 66.0175 428.878C67.4702 430.912 66.0831 433.715 65.1387 435.469C62.7429 439.919 50.5467 450.525 45.3658 444.697C37.6987 436.071 52.4069 421.623 59.866 417.893C60.7338 417.459 65.4687 415.504 66.8963 416.575C68.905 418.082 66.0822 422.709 65.5781 423.605C64.9007 424.81 64.1476 425.971 63.3812 427.121C62.8653 427.894 58.5478 433.112 58.5478 433.272C58.5478 433.777 60.2309 432.028 61.6236 430.636" fill="none" fill-rule="evenodd" opacity="1" stroke="#f5601d" stroke-linecap="round" stroke-linejoin="round" stroke-width="17.9141"/>
<path d="M158.73 273.771C156.476 276.025 154.969 282.067 156.533 285.195" fill="none" fill-rule="evenodd" opacity="1" stroke="#252222" stroke-linecap="round" stroke-linejoin="round" stroke-width="17.9141"/>
<path d="M235.625 326.059C225.2 322.584 242.93 309.517 247.489 313.317C253.274 318.138 241.661 329.907 237.822 332.211C237.22 332.572 233.966 334.115 232.989 333.529C231.516 332.646 231.486 329.73 231.67 328.256C231.909 326.345 231.94 324.372 232.549 322.544C234.329 317.204 237.592 312.884 242.216 309.801C244.533 308.256 252.252 306.855 249.246 312.438C247.434 315.803 246.021 317.28 244.852 320.786" fill="none" fill-rule="evenodd" opacity="1" stroke="#252222" stroke-linecap="round" stroke-linejoin="round" stroke-width="17.9141"/>
<path d="M77.0025 36.4961C71.1704 43.4945 70.9751 51.8331 70.4115 60.6629C69.3749 76.9035 75.0414 94.2922 90.6238 101.527C114.321 112.529 140.057 116.344 164.443 125.254C170.497 127.467 176.748 129.294 182.458 132.285C194.415 138.548 204.547 147.036 213.216 157.33C216.112 160.77 219.026 164.087 222.004 167.437C223.041 168.603 224.394 169.141 225.079 170.512" fill="none" fill-rule="evenodd" opacity="1" stroke="#252222" stroke-linecap="round" stroke-linejoin="round" stroke-width="17.9141"/>
<path d="M110.397 91.4208C116.31 91.4208 120.309 85.0728 124.457 81.754C128.26 78.712 132.845 76.0223 137.2 73.8449" fill="none" fill-rule="evenodd" opacity="1" stroke="#252222" stroke-linecap="round" stroke-linejoin="round" stroke-width="17.9141"/>
<path d="M159.609 112.072C164.969 104.033 171.77 98.1543 178.503 91.4208" fill="none" fill-rule="evenodd" opacity="1" stroke="#252222" stroke-linecap="round" stroke-linejoin="round" stroke-width="17.9141"/>
<path d="M371.399 262.786C375.257 270.503 386.75 265.233 391.611 261.907C406.444 251.758 416.888 235.153 424.566 219.286C438.675 190.127 438.977 156.871 436.869 125.254C436.027 112.618 435.112 100.21 430.278 88.345C425.052 75.5175 416.3 65.5002 408.308 54.5114C405.093 50.0904 401.364 45.9697 397.763 41.7688C396.763 40.6024 394.606 35.7783 393.808 37.3749" fill="none" fill-rule="evenodd" opacity="1" stroke="#252222" stroke-linecap="round" stroke-linejoin="round" stroke-width="17.9141"/>
<path d="M364.808 80.4358C364.808 83.7562 370.41 89.4146 372.717 91.4208C382.852 100.234 396.544 100.422 407.43 107.678" fill="none" fill-rule="evenodd" opacity="1" stroke="#252222" stroke-linecap="round" stroke-linejoin="round" stroke-width="17.9141"/>
<path d="M382.823 152.497C382.823 155.86 389.729 158.867 392.051 159.967C399.727 163.603 408.401 164.965 416.217 168.315" fill="none" fill-rule="evenodd" opacity="1" stroke="#252222" stroke-linecap="round" stroke-linejoin="round" stroke-width="17.9141"/>
<path d="M454.445 201.71C458.479 193.642 462.74 189.9 468.945 183.694" fill="none" fill-rule="evenodd" opacity="1" stroke="#252222" stroke-linecap="round" stroke-linejoin="round" stroke-width="17.9141"/>
<path d="M150.821 143.709C142.349 141.894 134.947 141.512 126.215 141.512C122.889 141.512 118.728 141.301 115.669 142.83" fill="none" fill-rule="evenodd" opacity="1" stroke="#252222" stroke-linecap="round" stroke-linejoin="round" stroke-width="17.9141"/>
<path d="M38.4113 416.202C36.7301 416.707 34.7189 416.313 33.2584 417.287C32.0345 418.103 33.0359 421.895 33.2584 422.711C34.5257 427.358 35.9869 431.965 38.1401 436.272C38.8826 437.756 39.2875 438.791 40.3098 440.068C40.9487 440.867 42.156 443.208 42.4794 442.238C43.1948 440.092 39.2169 434.291 38.6825 432.475C38.1371 430.62 34.5545 415.901 36.5129 415.117C40.4255 413.552 46.4737 414.032 50.6157 414.032C52.8381 414.032 53.8808 413.855 56.0398 414.575C67.6528 418.446 54.6824 429.334 50.0733 433.559C49.5462 434.043 45.7209 437.343 44.6491 436.272C41.5429 433.165 46.2505 422.074 47.3612 418.372C48.2225 415.501 47.9444 412.804 44.1067 414.032C42.1718 414.652 40.3572 415.618 38.4113 416.202Z" fill="none" fill-rule="evenodd" opacity="1" stroke="#f5601d" stroke-linecap="round" stroke-linejoin="round" stroke-width="17.9141"/>
</g>
<path d="M294.565 739.755L294.565 739.755L294.565 740.305L294.565 740.305L294.565 739.755Z" fill="#ffffff" fill-rule="evenodd" opacity="1" stroke="#f5601d" stroke-linecap="round" stroke-linejoin="round" stroke-width="17.9141"/>
</g>
</svg>
