<?xml version="1.0" encoding="UTF-8" standalone="no"?>
<!DOCTYPE svg PUBLIC "-//W3C//DTD SVG 1.1//EN" "http://www.w3.org/Graphics/SVG/1.1/DTD/svg11.dtd">
<!-- Created with Vectornator (http://vectornator.io/) -->
<svg height="100%" stroke-miterlimit="10" style="fill-rule:nonzero;clip-rule:evenodd;stroke-linecap:round;stroke-linejoin:round;" version="1.1" viewBox="0 0 500 500" width="100%" xml:space="preserve" xmlns="http://www.w3.org/2000/svg" xmlns:vectornator="http://vectornator.io" xmlns:xlink="http://www.w3.org/1999/xlink">
<defs/>
<clipPath id="ArtboardFrame">
<rect height="500" width="500" x="0" y="0"/>
</clipPath>
<g clip-path="url(#ArtboardFrame)" id="레이어-1" vectornator:layerName="레이어 1">
<path d="M401.248-221.254C402.064-221.171 402.403-223.045 401.841-223.642C400.482-225.086 398.485-226.083 396.514-226.284C395.681-226.368 394.344-224.957 394.917-224.348C396.527-222.637 398.911-221.492 401.248-221.254Z" fill="none" fill-rule="evenodd" opacity="1" stroke="#000000" stroke-linecap="round" stroke-linejoin="round" stroke-width="10"/>
<path d="M151.282 257.066C145.196 269.237 140.524 282.14 134.584 294.415C120.774 322.956 106.574 351.314 92.4022 379.658C87.5855 389.291 83.156 399.506 80.5385 409.976C79.9205 412.448 78.7656 416.759 80.0991 419.204C84.0946 426.529 93.3314 426.898 100.751 426.673C122.012 426.029 142.334 420.074 162.706 414.37C219.605 398.438 273.758 373.951 318.253 334.4C332.889 321.39 345.672 307.78 355.601 290.9C361.192 281.396 364.192 270.37 366.586 259.702C368.739 250.113 369.613 238.608 367.465 228.944C361.42 201.743 328.549 183.9 303.313 178.853C267.159 171.622 229.08 188.221 199.176 206.975C185.177 215.753 173.598 226.494 166.221 241.248" fill="none" fill-rule="evenodd" opacity="1" stroke="#252222" stroke-linecap="round" stroke-linejoin="round" stroke-width="17.9141"/>
<path d="M66.0384 437.658C57.6026 434.846 56.806 426.802 64.7202 422.279C68.3371 420.213 72.5357 419.643 76.5839 419.643C79.1279 419.643 81.9336 419.927 83.6143 422.279C85.067 424.313 83.6799 427.117 82.7355 428.87C80.3396 433.32 68.1435 443.926 62.9626 438.098C55.2954 429.472 70.0037 415.024 77.4627 411.294C78.3306 410.861 83.0654 408.906 84.4931 409.976C86.5017 411.483 83.6789 416.111 83.1749 417.007C82.4975 418.211 81.7444 419.372 80.9779 420.522C80.462 421.296 76.1445 426.514 76.1445 426.673C76.1445 427.178 77.8277 425.43 79.2203 424.037" fill="none" fill-rule="evenodd" opacity="1" stroke="#252222" stroke-linecap="round" stroke-linejoin="round" stroke-width="17.9141"/>
<path d="M176.327 267.172C174.073 269.426 172.566 275.468 174.13 278.596" fill="none" fill-rule="evenodd" opacity="1" stroke="#252222" stroke-linecap="round" stroke-linejoin="round" stroke-width="17.9141"/>
<path d="M253.222 319.46C242.797 315.985 260.526 302.919 265.086 306.718C270.871 311.539 259.258 323.309 255.419 325.612C254.817 325.973 251.562 327.516 250.585 326.93C249.113 326.047 249.083 323.132 249.267 321.657C249.506 319.746 249.537 317.773 250.146 315.945C251.926 310.605 255.189 306.285 259.813 303.203C262.13 301.658 269.849 300.256 266.843 305.839C265.031 309.205 263.618 310.681 262.449 314.188" fill="none" fill-rule="evenodd" opacity="1" stroke="#252222" stroke-linecap="round" stroke-linejoin="round" stroke-width="17.9141"/>
<path d="M94.5992 29.8973C88.7672 36.8957 88.5719 45.2343 88.0083 54.0642C86.9716 70.3047 92.6382 87.6935 108.221 94.9282C131.918 105.93 157.654 109.745 182.039 118.656C188.094 120.868 194.344 122.695 200.055 125.686C212.012 131.949 222.143 140.437 230.813 150.732C233.709 154.171 236.623 157.488 239.6 160.838C240.638 162.005 241.991 162.542 242.676 163.914" fill="none" fill-rule="evenodd" opacity="1" stroke="#252222" stroke-linecap="round" stroke-linejoin="round" stroke-width="17.9141"/>
<path d="M127.993 84.822C133.907 84.822 137.906 78.474 142.054 75.1553C145.857 72.1133 150.442 69.4235 154.797 67.2461" fill="none" fill-rule="evenodd" opacity="1" stroke="#252222" stroke-linecap="round" stroke-linejoin="round" stroke-width="17.9141"/>
<path d="M177.206 105.474C182.566 97.4338 189.367 91.5556 196.1 84.822" fill="none" fill-rule="evenodd" opacity="1" stroke="#252222" stroke-linecap="round" stroke-linejoin="round" stroke-width="17.9141"/>
<path d="M388.996 256.187C392.854 263.904 404.347 258.634 409.208 255.308C424.041 245.159 434.485 228.554 442.163 212.687C456.272 183.528 456.574 150.272 454.466 118.656C453.623 106.019 452.709 93.6111 447.875 81.7462C442.649 68.9188 433.897 58.9014 425.905 47.9126C422.69 43.4916 418.96 39.3709 415.36 35.1701C414.36 34.0036 412.203 29.1796 411.405 30.7761" fill="none" fill-rule="evenodd" opacity="1" stroke="#252222" stroke-linecap="round" stroke-linejoin="round" stroke-width="17.9141"/>
<path d="M382.405 73.8371C382.405 77.1574 388.007 82.8158 390.314 84.822C400.449 93.6353 414.141 93.8228 425.026 101.08" fill="none" fill-rule="evenodd" opacity="1" stroke="#252222" stroke-linecap="round" stroke-linejoin="round" stroke-width="17.9141"/>
<path d="M400.42 145.898C400.42 149.261 407.326 152.268 409.647 153.368C417.323 157.004 425.998 158.367 433.814 161.717" fill="none" fill-rule="evenodd" opacity="1" stroke="#252222" stroke-linecap="round" stroke-linejoin="round" stroke-width="17.9141"/>
<path d="M472.042 195.111C476.076 187.043 480.337 183.301 486.542 177.096" fill="none" fill-rule="evenodd" opacity="1" stroke="#252222" stroke-linecap="round" stroke-linejoin="round" stroke-width="17.9141"/>
<path d="M168.418 137.11C159.945 135.295 152.544 134.913 143.812 134.913C140.486 134.913 136.325 134.702 133.266 136.232" fill="none" fill-rule="evenodd" opacity="1" stroke="#252222" stroke-linecap="round" stroke-linejoin="round" stroke-width="17.9141"/>
<path d="M56.0081 409.603C54.3268 410.108 52.3156 409.715 50.8551 410.688C49.6312 411.504 50.6326 415.296 50.8551 416.112C52.1224 420.759 53.5836 425.366 55.7369 429.673C56.4793 431.158 56.8843 432.192 57.9065 433.47C58.5455 434.268 59.7527 436.61 60.0762 435.639C60.7915 433.493 56.8136 427.693 56.2793 425.876C55.7338 424.021 52.1513 409.302 54.1096 408.519C58.0222 406.953 64.0705 407.434 68.2124 407.434C70.4349 407.434 71.4775 407.256 73.6366 407.976C85.2496 411.847 72.2791 422.736 67.67 426.961C67.1429 427.444 63.3176 430.744 62.2458 429.673C59.1396 426.567 63.8472 415.475 64.9579 411.773C65.8192 408.902 65.5412 406.206 61.7034 407.434C59.7685 408.053 57.9539 409.02 56.0081 409.603Z" fill="none" fill-rule="evenodd" opacity="1" stroke="#252222" stroke-linecap="round" stroke-linejoin="round" stroke-width="17.9141"/>
</g>
</svg>
